<?xml version="1.0" encoding="UTF-8"?>
<svg width="32" height="32" viewBox="0 0 32 32" fill="none" xmlns="http://www.w3.org/2000/svg">
  <!-- Black circle background -->
  <circle cx="16" cy="16" r="16" fill="#000000"/>
  
  <!-- Shopping bag outline in white -->
  <path d="M9 12V10C9 7.23858 11.2386 5 14 5H18C20.7614 5 23 7.23858 23 10V12M9 12H7C6.44772 12 6 12.4477 6 13V25C6 26.1046 6.89543 27 8 27H24C25.1046 27 26 26.1046 26 25V13C26 12.4477 25.5523 12 25 12H23M9 12H23" stroke="white" stroke-width="1.5" stroke-linecap="round" stroke-linejoin="round"/>
  
  <!-- Stylized M for Mangli -->
  <path d="M11 16.5L13 21L16 16.5L19 21L21 16.5" stroke="white" stroke-width="1.3" stroke-linecap="round" stroke-linejoin="round"/>
</svg>