<svg width="32" height="32" viewBox="0 0 32 32" fill="none" xmlns="http://www.w3.org/2000/svg">
  <!-- Background circle -->
  <circle cx="16" cy="16" r="16" fill="#000000"/>
  
  <!-- Shopping bag icon in white -->
  <path d="M10 12V10C10 7.79086 11.7909 6 14 6H18C20.2091 6 22 7.79086 22 10V12M10 12H8C7.44772 12 7 12.4477 7 13V24C7 25.1046 7.89543 26 9 26H23C24.1046 26 25 25.1046 25 24V13C25 12.4477 24.5523 12 24 12H22M10 12H22" stroke="white" stroke-width="1.5" stroke-linecap="round" stroke-linejoin="round"/>
  
  <!-- M letter for Mangli -->
  <path d="M12 16L14 20L16 16L18 20L20 16" stroke="white" stroke-width="1.2" stroke-linecap="round" stroke-linejoin="round"/>
</svg>